<svg height="779.06422" viewBox="0 0 865.00002 779.06422" width="865.00002" xmlns="http://www.w3.org/2000/svg"><rect fill="#f2f2f2" height="594" rx="38.14173" width="459" x="406.00002" y="27.5"/><rect fill="none" height="594" rx="38.14173" stroke="#3f3d56" stroke-miterlimit="10" width="459" x="384.00002" y=".5"/><path d="m407.50002 61.97059h408v471.05882h-408z" fill="none" stroke="#3f3d56" stroke-miterlimit="10"/><circle cx="613.50002" cy="31" fill="none" r="10" stroke="#3f3d56" stroke-miterlimit="10"/><circle cx="613.50002" cy="563.5" fill="none" r="22" stroke="#3f3d56" stroke-miterlimit="10"/><path d="m768.49028 174.035a67.00973 67.00973 0 0 0 -67.00974 67.00974c0 37.00844 70.20068 173.50735 70.20068 173.50735s63.81878-136.49896 63.81878-173.5074a67.00973 67.00973 0 0 0 -67.00972-67.00969zm0 111.6829a35.10034 35.10034 0 1 1 35.10033-35.10034 35.10034 35.10034 0 0 1 -35.10033 35.10029z" fill="#1f203a" transform="translate(-167.49999 -60.46789)"/><ellipse cx="601.00002" cy="400.5" fill="#1f203a" rx="67" ry="22"/><path d="m529.38066 156.42527a22.982 22.982 0 0 0 -19.80994 13.851c-4.9535 11.97382 1.4245 26.03886 10.999 34.77028s21.87359 13.72225 33.04832 20.28234c15.00951 8.81129 28.4968 21.04282 36.0069 36.74386s8.30889 35.15009-.51891 50.14991c-8.1937 13.9224-23.09255 22.2549-37.30219 29.9397" fill="none" stroke="#3f3d56" stroke-miterlimit="10" transform="translate(-167.49999 -60.46789)"/><ellipse cx="374.50002" cy="97" fill="#57b894" rx="17.5" ry="8.5"/><ellipse cx="388.50002" cy="153" fill="#57b894" rx="17.5" ry="8.5"/><ellipse cx="356.50002" cy="162" fill="#57b894" rx="17.5" ry="8.5"/><ellipse cx="406.50002" cy="209" fill="#57b894" rx="17.5" ry="8.5"/><ellipse cx="441.50002" cy="209" fill="#57b894" rx="17.5" ry="8.5"/><path d="m47.49085 778.56422h358.50917" fill="none" stroke="#3f3d56" stroke-miterlimit="10"/><path d="m201.843 665.79059a21.4007 21.4007 0 0 0 -18.44687 12.89791c-4.61266 11.14993 1.32648 24.24719 10.24221 32.37783s20.36852 12.77806 30.77434 18.88677c13.97676 8.205 26.536 19.59491 33.52937 34.21561s7.73717 32.73151-.4832 46.69923c-7.62992 12.96444-21.50362 20.7236-34.73553 27.87963" fill="none" stroke="#3f3d56" stroke-miterlimit="10" transform="translate(-167.49999 -60.46789)"/><ellipse cx="46.09406" cy="606.29358" fill="#57b894" rx="16.29587" ry="7.91514"/><ellipse cx="59.13076" cy="658.44037" fill="#57b894" rx="16.29587" ry="7.91514"/><ellipse cx="29.33259" cy="666.8211" fill="#57b894" rx="16.29587" ry="7.91514"/><ellipse cx="75.89223" cy="710.58716" fill="#57b894" rx="16.29587" ry="7.91514"/><ellipse cx="108.48397" cy="710.58716" fill="#57b894" rx="16.29587" ry="7.91514"/><path d="m241.35677 697.76985a17.47726 17.47726 0 0 1 15.06495 10.53331c3.767 9.10578-1.08329 19.80188-8.36448 26.4419s-16.6343 10.43542-25.13239 15.4242c-11.41436 6.70076-21.67109 16.00253-27.38233 27.94277s-6.3187 26.73074.39462 38.13772c6.2311 10.58763 17.56129 16.92428 28.36736 22.76838" fill="none" stroke="#3f3d56" stroke-miterlimit="10" transform="translate(-167.49999 -60.46789)"/><ellipse cx="64.26009" cy="638.09485" fill="#57b894" rx="13.3083" ry="6.46403"/><ellipse cx="53.61344" cy="680.68142" fill="#57b894" rx="13.3083" ry="6.46403"/><ellipse cx="77.94862" cy="687.52569" fill="#57b894" rx="13.3083" ry="6.46403"/><ellipse cx="39.92491" cy="723.26798" fill="#57b894" rx="13.3083" ry="6.46403"/><ellipse cx="13.3083" cy="723.26798" fill="#57b894" rx="13.3083" ry="6.46403"/><path d="m297.34552 797.97233s9.31192 4.656 15.83027 5.58716 10.18471-5.66194 8.81713-7.95253 4.21957-.4282 7.94434 7.95253c0 0 15.83028 18.62385 25.1422 19.55505s9.38464 13.538 4.656 13.96789c-5.12156.46559-13.96789 3.72477-25.14221 0s-21.41743-13.96789-26.07339-13.96789-20.48624-7.44955-15.83028-11.17432 4.65594-13.96789 4.65594-13.96789z" fill="#3f3d56" transform="translate(-167.49999 -60.46789)"/><path d="m389.12386 819.01147a51.71333 51.71333 0 0 0 14.20836-.872c6.39831-1.55486 7.35545-9.03787 5.23533-10.65719s3.75918-1.96386 10.32867 4.43555c0 0 21.61226 11.41733 30.60457 8.82553s13.73932 9.08737 9.508 11.24176a53.94948 53.94948 0 0 1 -23.32533 6.58138c-11.75859.6891-25.0927-2.269-29.416-.5408s-21.78784.6869-18.84709-4.5 1.70349-14.51423 1.70349-14.51423z" fill="#3f3d56" transform="translate(-167.49999 -60.46789)"/><circle cx="205.7936" cy="278.04816" fill="#ffc1c7" r="36.31651"/><g transform="translate(-167.49999 -60.46789)"><path d="m344.89221 352.94954s5.58716 39.11009-7.44954 44.69725 66.11468 3.72477 66.11468 3.72477-11.17431-35.38532-8.38073-44.69725-50.28441-3.72477-50.28441-3.72477z" fill="#ffc1c7"/><path d="m331.85552 575.50459s-2.79358 70.77064-5.58716 78.22018-5.58716 57.73395-5.58716 57.73395l-24.211 91.25688 22.34863 7.44954s30.72935-54.00914 34.45417-60.52753 33.52293-110.81192 33.52293-110.81192-2.79357 64.25229-2.79357 85.66972 5.58715 99.63762 5.58715 99.63762l17.69266-1.86239 23.27982-98.70642s33.52293-133.16055 11.17431-148.05963-109.88078 0-109.88078 0z" fill="#2f2e41"/><path d="m467.80964 597.85321s.9312 54.00918-10.24311 45.62844 0-50.2844 0-50.2844z" fill="#ffc1c7"/><path d="m313.23166 579.22936s.9312 54.00917-10.24312 45.62844 0-50.28441 0-50.28441z" fill="#ffc1c7"/><path d="m450.117 421.8578s-18.62385-21.41743-34.45412-18.62386-102.4312 1.86239-102.4312 1.86239-28.867 36.31651-21.41743 43.766 31.66055 139.6789 31.66055 139.6789 64.2523-8.38073 86.60092-8.38073 31.66055-3.72477 31.66055-3.72477-29.79817-59.59633-15.83028-86.60092 34.45411-55.87151 34.45411-55.87151z" fill="#1f203a"/><path d="m444.52983 428.37615 15.83027 5.58715s9.3119 32.5917 9.3119 58.66514.93119 39.11009 4.656 48.422 15.83028 53.078 9.31193 62.38991a62.09627 62.09627 0 0 1 -13.0367 13.96789l-21.41743-1.86239s-.93119-30.72936-6.51835-33.52293-13.03669-20.48624-13.03669-20.48624-17.69267-56.80276-6.51835-75.42661 21.41742-57.73392 21.41742-57.73392z" fill="#1f203a"/><path d="m384.9335 462.83027s9.31192-40.97247-8.38074-39.11009-41.90367 2.79358-48.422 2.79358-43.76606-4.656-49.35322 19.555-13.03669 54.00917 2.79358 72.633c0 0 5.58716 81.945 27.00459 87.53211s78.22018 12.10551 98.70642-14.89908 12.10551-56.80275 12.10551-56.80275h-9.31194z" fill="#3f3d56"/></g><path d="m248.163 475.927 7.449-50.285-3.724 52.147z" fill="#3f3d56"/><path d="m290.883 525.22018s15.83027 7.44954 48.422 2.79358v13.96789l-48.422-3.72477z" opacity=".1" transform="translate(-167.49999 -60.46789)"/><path d="m208.587 362.787 24.211-13.037-20.486 17.693z" fill="#3f3d56"/><path d="m427.76836 409.75229s18.62385 6.51835 18.62385 0-16.76146-12.1055-27.00458-15.83027-58.66514-9.31193-66.11468-12.10551-42.83487-7.44954-45.62844 3.72477-3.72477 34.45413 10.24312 37.24771 50.2844-4.656 68.90825-2.79358 40.97248-10.24312 40.97248-10.24312z" fill="#1f203a" transform="translate(-167.49999 -60.46789)"/><path d="m427.76836 409.75229s18.62385 6.51835 18.62385 0-16.76146-12.1055-27.00458-15.83027-58.66514-9.31193-66.11468-12.10551-42.83487-7.44954-45.62844 3.72477-3.72477 34.45413 10.24312 37.24771 50.2844-4.656 68.90825-2.79358 40.97248-10.24312 40.97248-10.24312z" opacity=".1" transform="translate(-167.49999 -60.46789)"/><path d="m130.367 370.236 6.329-13.294 1.121 16.088z" fill="#3f3d56"/><ellipse cx="199.50001" cy="276.03211" fill="#2f2e41" rx="34" ry="39.5"/><ellipse cx="205.50001" cy="255.03211" fill="#2f2e41" rx="34" ry="21.5"/><ellipse cx="232.00001" cy="287.53211" fill="#ffc1c7" rx="3.5" ry="6"/><path d="m394.61838 310.08647c3.57661-1.95762 6.63213-5.49691 8.91976-10.332a10.901 10.901 0 0 1 .17861 3.27042 12.38365 12.38365 0 0 0 4.25791-1.28372l-.31909 3.48552a35.95487 35.95487 0 0 0 7.0287-5.62774 27.67423 27.67423 0 0 1 -2.462 14.8584c-1.85521 3.66314-4.37648 6.04583-6.87143 8.39277" fill="#2f2e41" transform="translate(-167.49999 -60.46789)"/></svg>